<svg width="374" height="112" viewBox="0 0 374 112" fill="none" xmlns="http://www.w3.org/2000/svg">
<path d="M20.0185 84.1379C16.6069 84.1379 14.2488 82.8836 12.9443 80.3751C11.6399 77.7661 10.9876 74.6555 10.9876 71.0431V33.7154C10.9876 32.7119 10.4859 32.2102 9.48248 32.2102L2.55878 32.3607C1.75603 32.3607 1.1038 32.1099 0.602085 31.6082C0.200711 31.1064 2.4368e-05 30.5044 2.4368e-05 29.802C2.4368e-05 28.9992 0.250883 28.347 0.7526 27.8453C1.25432 27.2432 2.00689 26.9422 3.01033 26.9422C7.82681 26.9422 11.0378 25.5876 12.6433 22.8783C13.6467 21.2728 14.4495 19.0151 15.0515 16.1051C15.7539 13.1951 16.2055 11.389 16.4062 10.6866C16.7072 9.88381 17.4096 9.48244 18.5134 9.48244C20.4199 9.48244 21.3732 10.7869 21.3732 13.3958V25.7381C21.3732 26.7415 21.8749 27.2432 22.8783 27.2432L36.4247 26.9422C37.3278 26.9422 37.98 27.193 38.3814 27.6948C38.8831 28.1965 39.134 28.8487 39.134 29.6515C39.134 30.3539 38.8831 31.0061 38.3814 31.6082C37.8797 32.2102 37.2274 32.4611 36.4247 32.3607C33.6151 32.0597 29.0494 31.9092 22.7278 31.9092C21.7244 31.9092 21.2227 32.4109 21.2227 33.4143L21.0721 71.0431C21.0721 72.749 21.624 74.3043 22.7278 75.7091C23.8316 77.1139 25.2364 77.8163 26.9422 77.8163C29.1498 77.8163 31.5079 76.4115 34.0164 73.6019C34.9195 72.5984 35.7223 72.0967 36.4247 72.0967C37.2274 72.0967 37.6288 72.5483 37.6288 73.4514C37.6288 74.3545 37.1773 75.4081 36.2742 76.6122C34.468 78.8197 32.1601 80.6259 29.3505 82.0307C26.5409 83.4355 23.4302 84.1379 20.0185 84.1379ZM62.2039 84.2885C56.083 84.2885 51.417 83.285 48.206 81.2782C44.995 79.2713 43.4899 75.7593 43.6906 70.7421C43.9916 64.9222 47.5036 60.6576 54.2266 57.9483C61.05 55.1387 68.2747 53.483 75.9008 52.9813C77.3056 52.7806 78.008 51.9779 78.008 50.5731V42.8968C78.008 39.1841 77.0548 36.2741 75.1482 34.1669C73.2417 32.0597 70.7833 31.0061 67.773 31.0061C64.4617 31.0061 61.8527 32.0095 59.9462 34.0164C58.0397 35.9229 57.0864 38.3813 57.0864 41.3916C57.0864 43.4989 56.5847 45.0542 55.5813 46.0576C54.5778 47.061 53.3235 47.5628 51.8184 47.5628C50.5139 47.5628 49.3098 47.061 48.206 46.0576C47.2026 45.0542 46.7009 43.5992 46.7009 41.6927C46.7009 39.1841 47.7043 36.826 49.7112 34.6185C51.8184 32.3106 54.5277 30.4542 57.839 29.0494C61.2507 27.6446 64.7627 26.9422 68.375 26.9422C74.195 26.9422 79.0114 28.3972 82.8245 31.3071C86.6375 34.1167 88.5441 38.2308 88.5441 43.6494V70.8926C88.5441 77.1139 89.7984 80.2245 92.307 80.2245C92.608 80.2245 93.3104 79.9737 94.4142 79.472C95.5179 78.8699 96.1702 78.5689 96.3709 78.5689C96.8726 78.5689 97.274 78.7194 97.575 79.0204C97.876 79.3215 98.0265 79.7228 98.0265 80.2245C98.0265 81.4287 97.0231 82.3819 95.0162 83.0843C93.1097 83.7867 91.1028 84.1379 88.9956 84.1379C84.5805 84.1379 81.52 82.6328 79.8142 79.6225C79.4128 78.9201 78.8609 78.5689 78.1585 78.5689C77.5565 78.5689 77.0046 78.7696 76.5029 79.1709C71.586 82.5826 66.8197 84.2885 62.2039 84.2885ZM77.1049 72.3978C77.8073 70.8926 78.1585 68.3339 78.1585 64.7215L78.008 59.3029C78.008 57.7978 77.2554 57.0452 75.7503 57.0452C61.2005 57.5469 53.9256 61.962 53.9256 70.2905C53.9256 73.2005 54.9792 75.4582 57.0864 77.0637C59.1936 78.6692 61.8026 79.472 64.9132 79.472C67.5221 79.472 69.9805 78.8699 72.2884 77.6658C74.5963 76.3613 76.2018 74.6053 77.1049 72.3978ZM102.486 36.4246C102.486 36.0233 102.736 35.6219 103.238 35.2205C103.84 34.7188 104.643 34.3676 105.646 34.1669C108.757 33.3642 111.968 31.7085 115.279 29.1999C116.182 28.5979 117.035 28.0961 117.838 27.6948C118.641 27.193 119.293 26.9422 119.795 26.9422C121.2 26.9422 121.902 27.5442 121.902 28.7484C121.902 29.8521 121.852 30.9559 121.751 32.0597V32.3607C121.751 32.8625 121.952 33.2137 122.354 33.4143C122.755 33.5147 123.156 33.3642 123.558 32.9628C128.374 28.9491 133.241 26.9422 138.158 26.9422C141.469 26.9422 144.68 27.9456 147.791 29.9525C151.002 31.9594 153.611 35.07 155.617 39.2844C157.725 43.3985 158.778 48.516 158.778 54.637L158.628 68.1833C158.628 72.6988 159.079 75.9098 159.982 77.8163C160.885 79.7228 162.792 80.4252 165.702 79.9235L166.605 79.773C167.408 79.773 168.01 79.9737 168.411 80.3751C168.913 80.7764 169.164 81.2782 169.164 81.8802C169.164 82.4823 168.863 82.984 168.261 83.3854C167.759 83.7867 167.006 83.9874 166.003 83.9874H141.017C140.014 83.9874 139.211 83.7867 138.609 83.3854C138.107 82.984 137.857 82.4823 137.857 81.8802C137.857 81.1778 138.158 80.6259 138.76 80.2245C139.362 79.8232 140.215 79.7228 141.318 79.9235C144.228 80.4252 146.085 79.3215 146.888 76.6122C147.791 73.8026 148.242 69.4878 148.242 63.6679V55.5401C148.242 51.3256 147.54 47.5628 146.135 44.2514C144.83 40.9401 143.074 38.3813 140.867 36.5752C138.76 34.769 136.602 33.8659 134.395 33.8659C132.087 33.8659 129.879 34.769 127.772 36.5752C125.765 38.281 124.11 40.3882 122.805 42.8968C121.501 45.4054 120.848 47.7634 120.848 49.971C120.748 52.3792 120.698 55.7408 120.698 60.0555C120.698 66.0761 120.949 71.0933 121.45 75.107C121.751 76.8129 122.303 78.0672 123.106 78.8699C123.909 79.6727 125.063 80.074 126.568 80.074C127.17 79.9737 127.772 79.9235 128.374 79.9235L129.277 79.773C130.08 79.773 130.682 79.9737 131.083 80.3751C131.585 80.7764 131.836 81.2782 131.836 81.8802C131.836 82.4823 131.535 82.984 130.933 83.3854C130.431 83.7867 129.679 83.9874 128.675 83.9874H104.141C103.138 83.9874 102.335 83.7867 101.733 83.3854C101.231 82.984 100.98 82.4823 100.98 81.8802C100.98 81.1778 101.281 80.6259 101.883 80.2245C102.486 79.8232 103.338 79.7228 104.442 79.9235C107.453 80.5256 109.459 78.9201 110.463 75.107C111.165 72.5984 111.516 69.2871 111.516 65.173L111.366 57.3462C111.165 53.1318 111.065 49.7201 111.065 47.1112C111.065 44.4019 110.613 42.2446 109.71 40.6391C108.908 38.9332 107.553 38.0803 105.646 38.0803C104.643 38.0803 103.84 37.9298 103.238 37.6288C102.736 37.3277 102.486 36.9264 102.486 36.4246ZM173.627 36.4246C173.627 36.0233 173.878 35.6219 174.38 35.2205C174.982 34.7188 175.785 34.3676 176.788 34.1669C179.899 33.3642 183.11 31.7085 186.421 29.1999C187.324 28.5979 188.177 28.0961 188.98 27.6948C189.783 27.193 190.435 26.9422 190.937 26.9422C192.341 26.9422 193.044 27.5442 193.044 28.7484C193.044 29.8521 192.994 30.9559 192.893 32.0597V32.3607C192.893 32.8625 193.094 33.2137 193.495 33.4143C193.897 33.5147 194.298 33.3642 194.7 32.9628C199.516 28.9491 204.383 26.9422 209.3 26.9422C212.611 26.9422 215.822 27.9456 218.932 29.9525C222.143 31.9594 224.752 35.07 226.759 39.2844C228.866 43.3985 229.92 48.516 229.92 54.637L229.77 68.1833C229.77 72.6988 230.221 75.9098 231.124 77.8163C232.027 79.7228 233.934 80.4252 236.844 79.9235L237.747 79.773C238.55 79.773 239.152 79.9737 239.553 80.3751C240.055 80.7764 240.306 81.2782 240.306 81.8802C240.306 82.4823 240.005 82.984 239.403 83.3854C238.901 83.7867 238.148 83.9874 237.145 83.9874H212.159C211.156 83.9874 210.353 83.7867 209.751 83.3854C209.249 82.984 208.999 82.4823 208.999 81.8802C208.999 81.1778 209.3 80.6259 209.902 80.2245C210.504 79.8232 211.357 79.7228 212.46 79.9235C215.37 80.4252 217.227 79.3215 218.029 76.6122C218.932 73.8026 219.384 69.4878 219.384 63.6679V55.5401C219.384 51.3256 218.682 47.5628 217.277 44.2514C215.972 40.9401 214.216 38.3813 212.009 36.5752C209.902 34.769 207.744 33.8659 205.537 33.8659C203.229 33.8659 201.021 34.769 198.914 36.5752C196.907 38.281 195.251 40.3882 193.947 42.8968C192.643 45.4054 191.99 47.7634 191.99 49.971C191.89 52.3792 191.84 55.7408 191.84 60.0555C191.84 66.0761 192.091 71.0933 192.592 75.107C192.893 76.8129 193.445 78.0672 194.248 78.8699C195.051 79.6727 196.205 80.074 197.71 80.074C198.312 79.9737 198.914 79.9235 199.516 79.9235L200.419 79.773C201.222 79.773 201.824 79.9737 202.225 80.3751C202.727 80.7764 202.978 81.2782 202.978 81.8802C202.978 82.4823 202.677 82.984 202.075 83.3854C201.573 83.7867 200.821 83.9874 199.817 83.9874H175.283C174.28 83.9874 173.477 83.7867 172.875 83.3854C172.373 82.984 172.122 82.4823 172.122 81.8802C172.122 81.1778 172.423 80.6259 173.025 80.2245C173.627 79.8232 174.48 79.7228 175.584 79.9235C178.594 80.5256 180.601 78.9201 181.605 75.107C182.307 72.5984 182.658 69.2871 182.658 65.173L182.508 57.3462C182.307 53.1318 182.207 49.7201 182.207 47.1112C182.207 44.4019 181.755 42.2446 180.852 40.6391C180.049 38.9332 178.695 38.0803 176.788 38.0803C175.785 38.0803 174.982 37.9298 174.38 37.6288C173.878 37.3277 173.627 36.9264 173.627 36.4246ZM246.425 83.9874C245.422 83.9874 244.619 83.7867 244.017 83.3854C243.515 82.984 243.264 82.4823 243.264 81.8802C243.264 81.1778 243.565 80.6259 244.167 80.2245C244.769 79.8232 245.622 79.7228 246.726 79.9235C249.736 80.5256 251.743 78.9201 252.747 75.107C253.349 72.8995 253.65 69.4878 253.65 64.872C253.65 61.5607 253.6 59.0019 253.499 57.1957L253.349 47.1112C253.349 44.4019 252.897 42.2446 251.994 40.6391C251.191 38.9332 249.837 38.0803 247.93 38.0803C246.927 38.0803 246.124 37.9298 245.522 37.6288C245.02 37.3277 244.769 36.9264 244.769 36.4246C244.769 36.0233 245.02 35.6219 245.522 35.2205C246.124 34.7188 246.927 34.3676 247.93 34.1669C251.041 33.3642 254.252 31.7085 257.563 29.1999C258.466 28.5979 259.319 28.0961 260.122 27.6948C260.925 27.193 261.577 26.9422 262.079 26.9422C263.483 26.9422 264.186 27.5442 264.186 28.7484L263.885 34.769L263.283 45.1545C263.082 48.8672 262.982 53.7841 262.982 59.905C262.982 67.0294 263.233 72.0967 263.734 75.107C264.035 76.8129 264.587 78.0672 265.39 78.8699C266.193 79.6727 267.347 80.074 268.852 80.074C269.454 79.9737 270.056 79.9235 270.658 79.9235L271.561 79.773C272.364 79.773 272.966 79.9737 273.367 80.3751C273.869 80.7764 274.12 81.2782 274.12 81.8802C274.12 82.4823 273.819 82.984 273.217 83.3854C272.715 83.7867 271.962 83.9874 270.959 83.9874H258.466H246.425ZM257.413 17.0082C255.105 17.0082 253.098 16.2054 251.392 14.6C249.787 12.8941 248.984 10.8872 248.984 8.57934C248.984 6.1711 249.787 4.16423 251.392 2.55874C253.098 0.852901 255.105 -1.57397e-05 257.413 -1.57397e-05C259.721 -1.57397e-05 261.677 0.852901 263.283 2.55874C264.989 4.16423 265.841 6.1711 265.841 8.57934C265.841 10.8872 264.989 12.8941 263.283 14.6C261.677 16.2054 259.721 17.0082 257.413 17.0082ZM283.543 48.0143C284.948 49.3188 286.604 49.971 288.51 49.971C290.417 49.971 292.022 49.3188 293.327 48.0143C294.631 46.6095 295.284 44.9538 295.284 43.0473C295.284 41.1408 294.631 39.4851 293.327 38.0803C292.022 36.6755 290.417 35.9731 288.51 35.9731C286.604 35.9731 284.948 36.6755 283.543 38.0803C282.239 39.4851 281.587 41.1408 281.587 43.0473C281.587 44.9538 282.239 46.6095 283.543 48.0143ZM288.059 86.9977C288.059 85.6933 287.457 84.74 286.253 84.1379C283.343 82.8335 281.888 80.6761 281.888 77.6658C281.888 75.8596 282.49 74.3545 283.694 73.1503C284.898 71.9462 286.453 71.3442 288.36 71.3442C290.467 71.3442 292.173 72.1971 293.477 73.9029C294.882 75.6087 295.585 77.6658 295.585 80.074C295.585 83.0843 294.631 86.1448 292.725 89.2555C290.919 92.4664 288.51 94.7743 285.5 96.1792C284.798 96.4802 284.196 96.6307 283.694 96.6307C282.49 96.6307 281.888 96.0788 281.888 94.975C281.888 94.4733 282.038 93.9716 282.339 93.4699C282.64 93.0685 283.092 92.7675 283.694 92.5668C285.099 91.9647 286.152 91.1118 286.855 90.008C287.658 89.0046 288.059 88.0012 288.059 86.9977ZM317.538 17.0082C315.23 17.0082 313.223 16.2054 311.517 14.6C309.911 12.8941 309.109 10.8872 309.109 8.57934C309.109 6.1711 309.911 4.16423 311.517 2.55874C313.223 0.852901 315.23 -1.57397e-05 317.538 -1.57397e-05C319.845 -1.57397e-05 321.802 0.852901 323.408 2.55874C325.113 4.16423 325.966 6.1711 325.966 8.57934C325.966 10.8872 325.113 12.8941 323.408 14.6C321.802 16.2054 319.845 17.0082 317.538 17.0082ZM301.282 111.532C300.278 111.532 299.526 111.281 299.024 110.779C298.422 110.378 298.121 109.826 298.121 109.123C298.121 108.421 298.422 107.819 299.024 107.317C299.626 106.816 300.479 106.665 301.583 106.866C303.389 107.167 305.195 106.113 307.001 103.705C308.908 101.397 310.463 98.3867 311.667 94.674C312.872 90.9613 313.474 87.4493 313.474 84.1379L313.624 77.0637C313.825 70.8424 313.925 65.3737 313.925 60.6576C313.925 55.5401 313.775 51.0246 313.474 47.1112C313.273 44.3016 312.771 42.094 311.968 40.4886C311.266 38.8831 309.962 38.0803 308.055 38.0803C307.052 38.0803 306.249 37.9298 305.647 37.6288C305.145 37.3277 304.894 36.9264 304.894 36.4246C304.894 36.0233 305.145 35.6219 305.647 35.2205C306.249 34.7188 307.052 34.3676 308.055 34.1669C311.166 33.3642 314.377 31.7085 317.688 29.1999C318.591 28.5979 319.444 28.0961 320.247 27.6948C321.05 27.193 321.702 26.9422 322.204 26.9422C323.608 26.9422 324.311 27.5442 324.311 28.7484L324.01 32.8123C323.608 37.0267 323.408 41.1408 323.408 45.1545L323.558 64.4205C323.558 69.6383 323.408 73.9531 323.107 77.3648C322.906 80.6761 322.404 83.6864 321.601 86.3957C320.096 92.0149 318.039 96.6809 315.43 100.394C312.922 104.207 310.363 107.016 307.754 108.822C305.245 110.629 303.088 111.532 301.282 111.532ZM354.51 84.1379C350.797 84.1379 347.687 83.6864 345.178 82.7833C342.77 81.8802 340.813 80.8768 339.308 79.773C337.803 78.5689 337.05 77.9668 337.05 77.9668C336.749 77.9668 336.549 78.2678 336.448 78.8699C336.348 79.3716 336.298 80.1242 336.298 81.1276C336.298 81.7297 336.097 82.2816 335.696 82.7833C335.294 83.285 334.793 83.5359 334.191 83.5359C332.886 83.5359 332.234 82.7833 332.234 81.2782V72.2472V64.872C332.234 64.1696 332.435 63.6177 332.836 63.2163C333.237 62.815 333.739 62.6143 334.341 62.6143C334.843 62.6143 335.294 62.815 335.696 63.2163C336.097 63.6177 336.298 64.1696 336.298 64.872C336.298 66.9792 337.151 69.2369 338.857 71.6452C340.663 73.9531 342.87 75.9098 345.479 77.5153C348.189 79.1208 350.848 79.9235 353.457 79.9235C356.668 79.9235 359.276 79.2211 361.283 77.8163C363.29 76.3112 364.294 74.3043 364.294 71.7957C364.294 69.8892 363.09 68.1332 360.681 66.5277C358.373 64.8218 354.711 62.7146 349.694 60.206L346.834 58.8514C343.523 57.2459 340.863 55.8411 338.857 54.637C336.95 53.4329 335.294 51.8274 333.89 49.8205C332.585 47.8136 331.933 45.3552 331.933 42.4452C331.933 39.736 332.685 37.2274 334.191 34.9195C335.796 32.5113 338.054 30.6047 340.964 29.1999C343.974 27.6948 347.436 26.9422 351.349 26.9422C354.56 26.9422 357.27 27.2934 359.477 27.9958C361.785 28.5979 363.692 29.3504 365.197 30.2535C366.702 31.1566 367.505 31.6082 367.605 31.6082C368.107 31.6082 368.358 30.8556 368.358 29.3504C368.358 28.7484 368.558 28.2968 368.96 27.9958C369.361 27.5944 369.813 27.3937 370.314 27.3937C370.916 27.3937 371.418 27.5944 371.819 27.9958C372.221 28.3972 372.421 28.8989 372.421 29.5009V37.7793V45.1545C372.421 45.7566 372.171 46.2583 371.669 46.6597C371.268 47.061 370.816 47.2617 370.314 47.2617C369.813 47.2617 369.361 47.061 368.96 46.6597C368.558 46.2583 368.358 45.7566 368.358 45.1545C368.358 43.1477 367.605 41.0906 366.1 38.9834C364.695 36.7758 362.688 34.9697 360.079 33.5649C357.47 32.0597 354.56 31.3071 351.349 31.3071C348.038 31.3071 345.479 32.0597 343.673 33.5649C341.967 34.9697 341.114 36.7257 341.114 38.8329C341.114 42.7463 344.375 46.2583 350.898 49.3689L355.714 51.4762C359.527 53.0817 362.588 54.5868 364.896 55.9916C367.304 57.2961 369.311 59.0521 370.916 61.2596C372.622 63.3669 373.475 65.9758 373.475 69.0864C373.475 73.5015 371.619 77.1139 367.906 79.9235C364.294 82.7331 359.828 84.1379 354.51 84.1379Z" fill="black"/>
</svg>
